<svg width="176" height="48" viewBox="0 0 176 48" fill="none" xmlns="http://www.w3.org/2000/svg">
<path d="M76.03 14.76H70.84C70.84 14.46 70.81 14.23 70.75 14.06C70.69 13.89 70.57 13.68 70.37 13.44C69.97 12.97 68.96 12.74 67.32 12.74C65.15 12.74 64.07 13.27 64.07 14.35C64.07 14.86 64.51 15.24 65.39 15.46C66.23 15.69 67.3 15.86 68.57 15.99C69.93 16.12 71.18 16.3 72.32 16.54C73.55 16.79 74.62 17.34 75.5 18.2C76.38 19.04 76.82 20.18 76.82 21.61C76.82 25.37 73.76 27.23 67.62 27.21C61.55 27.21 58.51 25.22 58.51 21.25V20.7H63.7V21.25C63.7 22.04 64.01 22.6 64.62 22.94C65.24 23.28 66.24 23.45 67.62 23.45C70.27 23.45 71.61 22.86 71.63 21.67C71.63 21.16 71.31 20.76 70.69 20.47C70.07 20.21 69.28 20.03 68.31 19.94C67.31 19.87 66.28 19.75 65.24 19.56C64.13 19.37 63.11 19.13 62.18 18.84C61.25 18.55 60.46 18.02 59.81 17.23C59.17 16.45 58.85 15.48 58.85 14.3C58.85 12.57 59.61 11.24 61.15 10.33C62.67 9.43003 64.75 8.98002 67.42 8.98002C73.15 8.97002 76.01 10.89 76.01 14.75L76.03 14.76Z" fill="#3F3F3F"/>
<path d="M93.81 14.4901H93.64L90.2 26.8701H83.44L78.75 9.34009H84L86.84 22.0901H87.04L90.58 9.34009H96.86L100.39 22.0901H100.62L103.46 9.34009H108.72L104.01 26.8701H97.25L93.81 14.4901Z" fill="#3F3F3F"/>
<path d="M111.69 9.34007H116.74V26.8701H111.69V9.34007ZM111.69 1.33008H116.74V5.81007H111.69V1.33008Z" fill="#3F3F3F"/>
<path d="M138.09 14.76H132.9C132.9 14.46 132.87 14.23 132.82 14.06C132.76 13.89 132.64 13.68 132.45 13.44C132.05 12.97 131.03 12.74 129.4 12.74C127.23 12.74 126.15 13.27 126.15 14.35C126.15 14.86 126.59 15.24 127.47 15.46C128.31 15.69 129.38 15.86 130.65 15.99C132.01 16.12 133.26 16.3 134.4 16.54C135.63 16.79 136.69 17.34 137.58 18.2C138.46 19.04 138.9 20.18 138.9 21.61C138.9 25.37 135.84 27.23 129.7 27.21C123.63 27.21 120.59 25.22 120.59 21.25V20.7H125.78V21.25C125.78 22.04 126.09 22.6 126.7 22.94C127.32 23.28 128.32 23.45 129.7 23.45C132.35 23.45 133.69 22.86 133.71 21.67C133.71 21.16 133.4 20.76 132.77 20.47C132.15 20.21 131.36 20.03 130.39 19.94C129.39 19.87 128.36 19.75 127.32 19.56C126.21 19.37 125.19 19.13 124.26 18.84C123.33 18.55 122.55 18.02 121.89 17.23C121.26 16.45 120.93 15.48 120.93 14.3C120.93 12.57 121.69 11.24 123.22 10.33C124.74 9.43003 126.83 8.98002 129.49 8.98002C135.22 8.97002 138.08 10.89 138.08 14.75L138.09 14.76Z" fill="#3F3F3F"/>
<path d="M159.19 14.76H154C154 14.46 153.97 14.23 153.91 14.06C153.85 13.89 153.73 13.68 153.54 13.44C153.14 12.97 152.13 12.74 150.49 12.74C148.32 12.74 147.24 13.27 147.24 14.35C147.24 14.86 147.68 15.24 148.56 15.46C149.4 15.69 150.46 15.86 151.74 15.99C153.1 16.12 154.35 16.3 155.49 16.54C156.72 16.79 157.78 17.34 158.67 18.2C159.55 19.04 159.99 20.18 159.99 21.61C159.99 25.37 156.93 27.23 150.79 27.21C144.72 27.21 141.69 25.22 141.69 21.25V20.7H146.87V21.25C146.87 22.04 147.18 22.6 147.79 22.94C148.41 23.28 149.41 23.45 150.79 23.45C153.44 23.45 154.77 22.86 154.8 21.67C154.8 21.16 154.49 20.76 153.86 20.47C153.24 20.21 152.45 20.03 151.48 19.94C150.48 19.87 149.45 19.75 148.41 19.56C147.3 19.37 146.28 19.13 145.35 18.84C144.43 18.55 143.63 18.02 142.99 17.23C142.35 16.45 142.03 15.48 142.03 14.3C142.03 12.57 142.8 11.24 144.33 10.33C145.84 9.43003 147.93 8.98002 150.59 8.98002C156.32 8.97002 159.19 10.89 159.19 14.75V14.76Z" fill="#3F3F3F"/>
<path d="M60.06 37.9402V34.3102H58.81V33.1902H59.57C59.92 33.1902 60.13 33.0002 60.13 32.4902V30.9502H61.24V33.1802H62.78V34.3002H61.24V37.8602C61.24 38.5602 61.59 38.9102 62.18 38.9102C62.64 38.9102 63.06 38.7002 63.06 38.7002V39.8102C63.06 39.8102 62.64 40.0202 62.09 40.0202C60.76 40.0202 60.06 39.3202 60.06 37.9202V37.9402Z" fill="#3F3F3F"/>
<path d="M67.52 36.5401C67.52 34.5901 69.06 33.05 70.87 33.05C72.68 33.05 74.15 34.45 74.15 36.33C74.15 36.68 74.08 36.96 74.08 36.96H68.78C68.92 38.01 69.82 38.91 71.01 38.91C72.34 38.91 73.04 37.93 73.04 37.93L73.81 38.7001C73.81 38.7001 72.9 40.03 71.02 40.03C69.14 40.03 67.53 38.4901 67.53 36.5401H67.52ZM72.96 35.91C72.75 34.93 71.98 34.16 70.87 34.16C69.76 34.16 68.99 34.93 68.78 35.91H72.97H72.96Z" fill="#3F3F3F"/>
<path d="M78.75 36.5401C78.75 34.5901 80.28 33.05 82.17 33.05C84.06 33.05 84.96 34.37 84.96 34.37L84.13 35.21C84.13 35.21 83.43 34.16 82.17 34.16C80.98 34.16 79.94 35.21 79.94 36.53C79.94 37.85 80.98 38.9 82.17 38.9C83.43 38.9 84.2 37.8501 84.2 37.8501L85.03 38.62C85.03 38.62 83.99 40.02 82.17 40.02C80.35 40.02 78.75 38.48 78.75 36.53V36.5401Z" fill="#3F3F3F"/>
<path d="M89.9 30.1201H91.09V34.1701C91.09 34.1701 91.79 33.0501 93.19 33.0501C94.79 33.0501 95.91 34.1701 95.91 35.9801V39.8901H94.72V35.9801C94.72 34.8601 94.02 34.1601 93.04 34.1601C91.92 34.1601 91.08 35.0001 91.08 36.1801V39.8801H89.89V30.1101L89.9 30.1201Z" fill="#3F3F3F"/>
<path d="M101.33 33.19H102.52V34.1701C102.52 34.1701 103.22 33.05 104.64 33.05C106.22 33.05 107.33 34.1701 107.33 35.9801V39.8901H106.14V35.9801C106.14 34.8601 105.45 34.16 104.47 34.16C103.35 34.16 102.51 35.0001 102.51 36.2601V39.8901H101.32V33.19H101.33Z" fill="#3F3F3F"/>
<path d="M112.34 36.5401C112.34 34.5901 113.88 33.05 115.76 33.05C117.64 33.05 119.18 34.5901 119.18 36.5401C119.18 38.4901 117.64 40.03 115.76 40.03C113.88 40.03 112.34 38.4901 112.34 36.5401ZM118 36.5401C118 35.1401 117.02 34.1701 115.77 34.1701C114.52 34.1701 113.53 35.1501 113.53 36.5401C113.53 37.9301 114.51 38.91 115.77 38.91C117.03 38.91 118 37.9301 118 36.5401Z" fill="#3F3F3F"/>
<path d="M124.26 30.1201H125.45V39.8901H124.26V30.1201Z" fill="#3F3F3F"/>
<path d="M130.53 36.5401C130.53 34.5901 132.07 33.05 133.95 33.05C135.83 33.05 137.37 34.5901 137.37 36.5401C137.37 38.4901 135.83 40.03 133.95 40.03C132.07 40.03 130.53 38.4901 130.53 36.5401ZM136.18 36.5401C136.18 35.1401 135.2 34.1701 133.95 34.1701C132.7 34.1701 131.71 35.1501 131.71 36.5401C131.71 37.9301 132.69 38.91 133.95 38.91C135.21 38.91 136.18 37.9301 136.18 36.5401Z" fill="#3F3F3F"/>
<path d="M142.17 41.43L142.94 40.66C142.94 40.66 143.7 41.71 145.03 41.71C146.29 41.71 147.19 40.8 147.19 39.41V38.71C147.19 38.71 146.56 39.75 145.03 39.75C143.35 39.75 141.96 38.36 141.96 36.4C141.96 34.44 143.36 33.05 145.03 33.05C146.56 33.05 147.19 34.1001 147.19 34.1001V33.19H148.38V39.4C148.38 41.35 146.91 42.8201 145.03 42.8201C143.15 42.8201 142.16 41.4201 142.16 41.4201L142.17 41.43ZM147.2 36.4C147.2 35.07 146.43 34.1701 145.17 34.1701C144.06 34.1701 143.15 35.08 143.15 36.4C143.15 37.72 144.06 38.6301 145.17 38.6301C146.28 38.6301 147.2 37.69 147.2 36.4Z" fill="#3F3F3F"/>
<path d="M153.32 42.6802V41.5602C153.32 41.5602 153.67 41.7002 154.09 41.7002C154.72 41.7002 155.08 41.3502 155.35 40.7202L155.7 39.8802L152.98 33.1802H154.24L156.27 38.3502L158.29 33.1802H159.55L156.55 40.7902C155.99 42.1802 155.36 42.8102 154.32 42.8102C153.76 42.8102 153.34 42.6702 153.34 42.6702L153.32 42.6802Z" fill="#3F3F3F"/>
<path d="M173.59 10.5101C172.64 9.55006 171.47 9.07007 170.1 9.07007C168.73 9.07007 167.55 9.56006 166.59 10.5101C165.64 11.4501 165.15 12.6101 165.15 13.9601C165.15 15.3101 165.63 16.4701 166.59 17.4301C167.56 18.3701 168.74 18.8401 170.1 18.8401C171.46 18.8401 172.64 18.3601 173.59 17.4101C174.58 16.4401 175.05 15.3201 175.05 13.9601C175.05 12.6001 174.58 11.4801 173.59 10.5101ZM173.01 16.8801C172.23 17.6501 171.25 18.0401 170.1 18.0401C168.95 18.0401 167.95 17.6501 167.17 16.8801C166.39 16.0901 165.99 15.1101 165.99 13.9601C165.99 12.8101 166.38 11.8301 167.17 11.0601C167.95 10.2701 168.94 9.87006 170.1 9.87006C171.26 9.87006 172.24 10.2701 173.01 11.0601C173.79 11.8301 174.19 12.8101 174.19 13.9601C174.19 15.1101 173.79 16.0801 173.01 16.8801Z" fill="#3F3F3F"/>
<path d="M170.78 14.29C171.62 14.13 172 13.41 172 12.8C172 11.83 171.34 11.23 170.28 11.23H168.44V16.74H169.22V14.38H169.82L169.86 14.44L171.17 16.74H172.02L170.6 14.32L170.76 14.29H170.78ZM169.23 13.75V11.89H170.09C171.04 11.89 171.24 12.42 171.24 12.86C171.24 13.27 171.03 13.75 170.06 13.75H169.23Z" fill="#3F3F3F"/>
<path d="M3.35001 7.40015L0.950012 8.28015V40.1101L3.35001 40.9901V39.2101L4.47998 38.8102V9.64015L3.35001 9.21016V7.40015Z" fill="#3CA043"/>
<path d="M7.87 5.76001L5.46997 6.63002V10.01V38.39V41.76L7.87 42.63V37.59L9.01001 37.18V11.28L7.87 10.84V5.76001Z" fill="#3CA043"/>
<path d="M12.39 4.11011L9.98999 4.99011V43.4101L12.39 44.2801V35.9701L13.52 35.5701V12.8901L12.39 12.4601V4.11011Z" fill="#3CA043"/>
<path d="M18.04 14.5099L16.91 14.08V2.45996L14.5 3.33995V13.44V21.91H18.04V14.5099Z" fill="#3CA043"/>
<path d="M14.5 34.96V45.05L16.91 45.93V34.35L18.04 33.95V26.52H14.5V34.96Z" fill="#3CA043"/>
<path d="M20.02 31.55V26.52H19.02V33.26V46.7L21.43 47.57V32.78L20.02 33.27V31.55Z" fill="#3CA043"/>
<path d="M20.02 21.9101V16.8901V15.1701L21.43 15.6601V0.810059L19.02 1.69006V15.1501V21.9101H20.02Z" fill="#3CA043"/>
<path d="M41.63 7.40015V9.22015L40.5 9.65015V38.7802L41.6 39.1702L41.63 39.1801V40.9901L44.03 40.1101V8.28015L41.63 7.40015Z" fill="#3CA043"/>
<path d="M37.11 10.86L35.97 11.29V37.14L37.11 37.56V42.63L39.52 41.76V38.38V10.03V6.63002L37.11 5.76001V10.86Z" fill="#3CA043"/>
<path d="M32.59 12.4701L31.47 12.9001V35.5401L32.59 35.9401V44.2801L34.99 43.4101V4.99011L32.59 4.11011V12.4701Z" fill="#3CA043"/>
<path d="M26.94 33.92L28.07 34.31V45.93L30.47 45.05V34.92V26.52H26.94V33.92Z" fill="#3CA043"/>
<path d="M30.47 13.4799V3.33995L28.07 2.45996V14.11L26.94 14.5399V21.91H30.47V13.4799Z" fill="#3CA043"/>
<path d="M24.96 31.55V33.27L23.55 32.78V47.57L25.96 46.7V26.52H24.96V31.55Z" fill="#3CA043"/>
<path d="M24.96 16.8901V21.9101H25.96V1.69006L23.55 0.810059V15.6601L24.96 15.1701V16.8901Z" fill="#3CA043"/>
</svg>
